<mxfile host="app.diagrams.net" agent="Mozilla/5.0 (Windows NT 10.0; Win64; x64) AppleWebKit/537.36 (KHTML, like Gecko) Chrome/133.0.0.0 Safari/537.36" version="26.0.14">
  <diagram name="Página-1" id="UD3LxY6L90YgcLNmKbvg">
    <mxGraphModel dx="2308" dy="814" grid="1" gridSize="10" guides="1" tooltips="1" connect="1" arrows="1" fold="1" page="1" pageScale="1" pageWidth="827" pageHeight="1169" math="0" shadow="0">
      <root>
        <mxCell id="0" />
        <mxCell id="1" parent="0" />
        <mxCell id="cwIM0nOu93WwqDmSKbHJ-1" value="Usuário&lt;div&gt;&lt;br&gt;&lt;/div&gt;" style="shape=umlActor;verticalLabelPosition=bottom;verticalAlign=top;html=1;outlineConnect=0;" vertex="1" parent="1">
          <mxGeometry x="-510" y="410" width="30" height="60" as="geometry" />
        </mxCell>
        <mxCell id="cwIM0nOu93WwqDmSKbHJ-14" value="Vertical Container" style="swimlane;whiteSpace=wrap;html=1;" vertex="1" parent="1">
          <mxGeometry x="-450" y="110" width="680" height="760" as="geometry" />
        </mxCell>
        <mxCell id="cwIM0nOu93WwqDmSKbHJ-4" value="Logar" style="ellipse;whiteSpace=wrap;html=1;" vertex="1" parent="cwIM0nOu93WwqDmSKbHJ-14">
          <mxGeometry x="30" y="60" width="120" height="80" as="geometry" />
        </mxCell>
        <mxCell id="cwIM0nOu93WwqDmSKbHJ-9" style="edgeStyle=orthogonalEdgeStyle;rounded=0;orthogonalLoop=1;jettySize=auto;html=1;exitX=1;exitY=0.5;exitDx=0;exitDy=0;" edge="1" parent="cwIM0nOu93WwqDmSKbHJ-14" source="cwIM0nOu93WwqDmSKbHJ-5">
          <mxGeometry relative="1" as="geometry">
            <mxPoint x="149.75862068965512" y="330.2413793103449" as="targetPoint" />
          </mxGeometry>
        </mxCell>
        <mxCell id="cwIM0nOu93WwqDmSKbHJ-5" value="Cadastrar" style="ellipse;whiteSpace=wrap;html=1;" vertex="1" parent="cwIM0nOu93WwqDmSKbHJ-14">
          <mxGeometry x="60" y="290" width="120" height="80" as="geometry" />
        </mxCell>
        <mxCell id="cwIM0nOu93WwqDmSKbHJ-6" value="Selecionar o plano" style="ellipse;whiteSpace=wrap;html=1;" vertex="1" parent="cwIM0nOu93WwqDmSKbHJ-14">
          <mxGeometry x="190" y="130" width="120" height="80" as="geometry" />
        </mxCell>
        <mxCell id="cwIM0nOu93WwqDmSKbHJ-7" value="" style="endArrow=none;dashed=1;html=1;dashPattern=1 3;strokeWidth=2;rounded=0;startArrow=classicThin;startFill=1;entryX=1;entryY=0.5;entryDx=0;entryDy=0;exitX=0.5;exitY=1;exitDx=0;exitDy=0;" edge="1" parent="cwIM0nOu93WwqDmSKbHJ-14" source="cwIM0nOu93WwqDmSKbHJ-6" target="cwIM0nOu93WwqDmSKbHJ-5">
          <mxGeometry width="50" height="50" relative="1" as="geometry">
            <mxPoint x="246" y="380" as="sourcePoint" />
            <mxPoint x="156" y="330" as="targetPoint" />
            <Array as="points">
              <mxPoint x="250" y="330" />
            </Array>
          </mxGeometry>
        </mxCell>
        <mxCell id="cwIM0nOu93WwqDmSKbHJ-8" value="&amp;lt;extends&amp;gt;" style="edgeLabel;html=1;align=center;verticalAlign=middle;resizable=0;points=[];" vertex="1" connectable="0" parent="cwIM0nOu93WwqDmSKbHJ-7">
          <mxGeometry x="0.0317" y="-3" relative="1" as="geometry">
            <mxPoint y="13" as="offset" />
          </mxGeometry>
        </mxCell>
        <mxCell id="cwIM0nOu93WwqDmSKbHJ-10" value="Visualizar biblioteca" style="ellipse;whiteSpace=wrap;html=1;" vertex="1" parent="cwIM0nOu93WwqDmSKbHJ-14">
          <mxGeometry x="60" y="460" width="120" height="80" as="geometry" />
        </mxCell>
        <mxCell id="cwIM0nOu93WwqDmSKbHJ-11" value="Selecionar obra" style="ellipse;whiteSpace=wrap;html=1;" vertex="1" parent="cwIM0nOu93WwqDmSKbHJ-14">
          <mxGeometry x="60" y="620" width="120" height="80" as="geometry" />
        </mxCell>
        <mxCell id="cwIM0nOu93WwqDmSKbHJ-22" value="Ler obra" style="ellipse;whiteSpace=wrap;html=1;" vertex="1" parent="cwIM0nOu93WwqDmSKbHJ-14">
          <mxGeometry x="190" y="540" width="120" height="80" as="geometry" />
        </mxCell>
        <mxCell id="cwIM0nOu93WwqDmSKbHJ-26" value="Verificar assinatura" style="ellipse;whiteSpace=wrap;html=1;" vertex="1" parent="cwIM0nOu93WwqDmSKbHJ-14">
          <mxGeometry x="290" y="400" width="120" height="80" as="geometry" />
        </mxCell>
        <mxCell id="cwIM0nOu93WwqDmSKbHJ-30" value="Exibir anúncios&amp;nbsp;" style="ellipse;whiteSpace=wrap;html=1;" vertex="1" parent="cwIM0nOu93WwqDmSKbHJ-14">
          <mxGeometry x="410" y="540" width="120" height="80" as="geometry" />
        </mxCell>
        <mxCell id="cwIM0nOu93WwqDmSKbHJ-31" value="" style="endArrow=classic;dashed=1;html=1;dashPattern=1 3;strokeWidth=2;rounded=0;exitX=0.5;exitY=0;exitDx=0;exitDy=0;entryX=0.5;entryY=1;entryDx=0;entryDy=0;endFill=1;" edge="1" parent="cwIM0nOu93WwqDmSKbHJ-14" source="cwIM0nOu93WwqDmSKbHJ-30" target="cwIM0nOu93WwqDmSKbHJ-26">
          <mxGeometry width="50" height="50" relative="1" as="geometry">
            <mxPoint x="480" y="530" as="sourcePoint" />
            <mxPoint x="360" y="480" as="targetPoint" />
            <Array as="points">
              <mxPoint x="470" y="510" />
              <mxPoint x="350" y="510" />
            </Array>
          </mxGeometry>
        </mxCell>
        <mxCell id="cwIM0nOu93WwqDmSKbHJ-32" value="&amp;lt;includes&amp;gt;" style="edgeLabel;html=1;align=center;verticalAlign=middle;resizable=0;points=[];" vertex="1" connectable="0" parent="cwIM0nOu93WwqDmSKbHJ-31">
          <mxGeometry x="0.1009" y="3" relative="1" as="geometry">
            <mxPoint x="14" y="7" as="offset" />
          </mxGeometry>
        </mxCell>
        <mxCell id="cwIM0nOu93WwqDmSKbHJ-34" value="" style="endArrow=none;dashed=1;html=1;dashPattern=1 3;strokeWidth=2;rounded=0;startArrow=classicThin;startFill=1;entryX=0.5;entryY=1;entryDx=0;entryDy=0;exitX=0.5;exitY=0;exitDx=0;exitDy=0;" edge="1" parent="cwIM0nOu93WwqDmSKbHJ-14" source="cwIM0nOu93WwqDmSKbHJ-11" target="cwIM0nOu93WwqDmSKbHJ-10">
          <mxGeometry width="50" height="50" relative="1" as="geometry">
            <mxPoint x="336" y="490" as="sourcePoint" />
            <mxPoint x="210" y="490" as="targetPoint" />
          </mxGeometry>
        </mxCell>
        <mxCell id="cwIM0nOu93WwqDmSKbHJ-35" value="&amp;lt;extends&amp;gt;" style="edgeLabel;html=1;align=center;verticalAlign=middle;resizable=0;points=[];" vertex="1" connectable="0" parent="cwIM0nOu93WwqDmSKbHJ-34">
          <mxGeometry x="0.0317" y="-3" relative="1" as="geometry">
            <mxPoint x="-3" y="1" as="offset" />
          </mxGeometry>
        </mxCell>
        <mxCell id="cwIM0nOu93WwqDmSKbHJ-38" value="" style="endArrow=classic;dashed=1;html=1;dashPattern=1 3;strokeWidth=2;rounded=0;exitX=1;exitY=0.5;exitDx=0;exitDy=0;entryX=0;entryY=0.5;entryDx=0;entryDy=0;endFill=1;" edge="1" parent="cwIM0nOu93WwqDmSKbHJ-14" source="cwIM0nOu93WwqDmSKbHJ-22" target="cwIM0nOu93WwqDmSKbHJ-30">
          <mxGeometry width="50" height="50" relative="1" as="geometry">
            <mxPoint x="326" y="500" as="sourcePoint" />
            <mxPoint x="326" y="410" as="targetPoint" />
          </mxGeometry>
        </mxCell>
        <mxCell id="cwIM0nOu93WwqDmSKbHJ-39" value="&amp;lt;includes&amp;gt;" style="edgeLabel;html=1;align=center;verticalAlign=middle;resizable=0;points=[];" vertex="1" connectable="0" parent="cwIM0nOu93WwqDmSKbHJ-38">
          <mxGeometry x="0.1009" y="3" relative="1" as="geometry">
            <mxPoint x="-15" y="13" as="offset" />
          </mxGeometry>
        </mxCell>
        <mxCell id="cwIM0nOu93WwqDmSKbHJ-40" value="" style="endArrow=none;dashed=1;html=1;dashPattern=1 3;strokeWidth=2;rounded=0;startArrow=classicThin;startFill=1;entryX=1;entryY=0.5;entryDx=0;entryDy=0;exitX=0.5;exitY=1;exitDx=0;exitDy=0;" edge="1" parent="cwIM0nOu93WwqDmSKbHJ-14" source="cwIM0nOu93WwqDmSKbHJ-22" target="cwIM0nOu93WwqDmSKbHJ-11">
          <mxGeometry width="50" height="50" relative="1" as="geometry">
            <mxPoint x="240" y="650" as="sourcePoint" />
            <mxPoint x="240" y="560" as="targetPoint" />
            <Array as="points">
              <mxPoint x="250" y="660" />
            </Array>
          </mxGeometry>
        </mxCell>
        <mxCell id="cwIM0nOu93WwqDmSKbHJ-41" value="&amp;lt;extends&amp;gt;" style="edgeLabel;html=1;align=center;verticalAlign=middle;resizable=0;points=[];" vertex="1" connectable="0" parent="cwIM0nOu93WwqDmSKbHJ-40">
          <mxGeometry x="0.0317" y="-3" relative="1" as="geometry">
            <mxPoint x="17" y="13" as="offset" />
          </mxGeometry>
        </mxCell>
        <mxCell id="cwIM0nOu93WwqDmSKbHJ-43" value="Selecionar forma de pagamento" style="ellipse;whiteSpace=wrap;html=1;" vertex="1" parent="cwIM0nOu93WwqDmSKbHJ-14">
          <mxGeometry x="390" y="130" width="120" height="80" as="geometry" />
        </mxCell>
        <mxCell id="cwIM0nOu93WwqDmSKbHJ-44" value="" style="endArrow=none;dashed=1;html=1;dashPattern=1 3;strokeWidth=2;rounded=0;entryX=0;entryY=0.5;entryDx=0;entryDy=0;exitX=1;exitY=0.5;exitDx=0;exitDy=0;" edge="1" parent="cwIM0nOu93WwqDmSKbHJ-14" source="cwIM0nOu93WwqDmSKbHJ-6" target="cwIM0nOu93WwqDmSKbHJ-43">
          <mxGeometry width="50" height="50" relative="1" as="geometry">
            <mxPoint x="350" y="430" as="sourcePoint" />
            <mxPoint x="400" y="380" as="targetPoint" />
          </mxGeometry>
        </mxCell>
        <mxCell id="cwIM0nOu93WwqDmSKbHJ-45" value="Pagar com cartão de crédito" style="ellipse;whiteSpace=wrap;html=1;" vertex="1" parent="cwIM0nOu93WwqDmSKbHJ-14">
          <mxGeometry x="490" y="240" width="120" height="80" as="geometry" />
        </mxCell>
        <mxCell id="cwIM0nOu93WwqDmSKbHJ-46" value="Pagar com cartão de débito" style="ellipse;whiteSpace=wrap;html=1;" vertex="1" parent="cwIM0nOu93WwqDmSKbHJ-14">
          <mxGeometry x="490" y="350" width="120" height="80" as="geometry" />
        </mxCell>
        <mxCell id="cwIM0nOu93WwqDmSKbHJ-47" value="" style="endArrow=none;dashed=1;html=1;dashPattern=1 3;strokeWidth=2;rounded=0;entryX=0.5;entryY=1;entryDx=0;entryDy=0;exitX=0;exitY=0.5;exitDx=0;exitDy=0;" edge="1" parent="cwIM0nOu93WwqDmSKbHJ-14" source="cwIM0nOu93WwqDmSKbHJ-46" target="cwIM0nOu93WwqDmSKbHJ-43">
          <mxGeometry width="50" height="50" relative="1" as="geometry">
            <mxPoint x="440" y="400" as="sourcePoint" />
            <mxPoint x="490" y="350" as="targetPoint" />
            <Array as="points">
              <mxPoint x="450" y="390" />
            </Array>
          </mxGeometry>
        </mxCell>
        <mxCell id="cwIM0nOu93WwqDmSKbHJ-59" value="&amp;lt;include&amp;gt;" style="edgeLabel;html=1;align=center;verticalAlign=middle;resizable=0;points=[];" vertex="1" connectable="0" parent="cwIM0nOu93WwqDmSKbHJ-47">
          <mxGeometry x="-0.1488" y="-1" relative="1" as="geometry">
            <mxPoint x="-1" y="-6" as="offset" />
          </mxGeometry>
        </mxCell>
        <mxCell id="cwIM0nOu93WwqDmSKbHJ-48" value="" style="endArrow=none;dashed=1;html=1;dashPattern=1 3;strokeWidth=2;rounded=0;entryX=0.5;entryY=1;entryDx=0;entryDy=0;exitX=0;exitY=0.5;exitDx=0;exitDy=0;" edge="1" parent="cwIM0nOu93WwqDmSKbHJ-14" source="cwIM0nOu93WwqDmSKbHJ-45" target="cwIM0nOu93WwqDmSKbHJ-43">
          <mxGeometry width="50" height="50" relative="1" as="geometry">
            <mxPoint x="440" y="400" as="sourcePoint" />
            <mxPoint x="490" y="350" as="targetPoint" />
            <Array as="points">
              <mxPoint x="450" y="280" />
            </Array>
          </mxGeometry>
        </mxCell>
        <mxCell id="cwIM0nOu93WwqDmSKbHJ-16" value="" style="endArrow=none;html=1;rounded=0;exitX=0.5;exitY=0.5;exitDx=0;exitDy=0;exitPerimeter=0;entryX=0;entryY=0.5;entryDx=0;entryDy=0;" edge="1" parent="1" source="cwIM0nOu93WwqDmSKbHJ-1" target="cwIM0nOu93WwqDmSKbHJ-5">
          <mxGeometry width="50" height="50" relative="1" as="geometry">
            <mxPoint x="-70" y="470" as="sourcePoint" />
            <mxPoint x="-20" y="420" as="targetPoint" />
          </mxGeometry>
        </mxCell>
        <mxCell id="cwIM0nOu93WwqDmSKbHJ-18" value="" style="endArrow=none;html=1;rounded=0;exitX=0.5;exitY=0.5;exitDx=0;exitDy=0;exitPerimeter=0;entryX=0;entryY=0.5;entryDx=0;entryDy=0;" edge="1" parent="1" source="cwIM0nOu93WwqDmSKbHJ-1" target="cwIM0nOu93WwqDmSKbHJ-4">
          <mxGeometry width="50" height="50" relative="1" as="geometry">
            <mxPoint x="-70" y="470" as="sourcePoint" />
            <mxPoint x="-20" y="420" as="targetPoint" />
            <Array as="points">
              <mxPoint x="-420" y="440" />
              <mxPoint x="-420" y="270" />
            </Array>
          </mxGeometry>
        </mxCell>
        <mxCell id="cwIM0nOu93WwqDmSKbHJ-19" value="" style="endArrow=none;html=1;rounded=0;exitX=0.5;exitY=0.5;exitDx=0;exitDy=0;exitPerimeter=0;entryX=0;entryY=0.5;entryDx=0;entryDy=0;" edge="1" parent="1" source="cwIM0nOu93WwqDmSKbHJ-1" target="cwIM0nOu93WwqDmSKbHJ-10">
          <mxGeometry width="50" height="50" relative="1" as="geometry">
            <mxPoint x="-70" y="470" as="sourcePoint" />
            <mxPoint x="-20" y="420" as="targetPoint" />
            <Array as="points">
              <mxPoint x="-420" y="440" />
              <mxPoint x="-420" y="610" />
            </Array>
          </mxGeometry>
        </mxCell>
        <mxCell id="cwIM0nOu93WwqDmSKbHJ-20" value="" style="endArrow=none;html=1;rounded=0;exitX=0.5;exitY=0.5;exitDx=0;exitDy=0;exitPerimeter=0;entryX=0;entryY=0.5;entryDx=0;entryDy=0;" edge="1" parent="1" source="cwIM0nOu93WwqDmSKbHJ-1" target="cwIM0nOu93WwqDmSKbHJ-11">
          <mxGeometry width="50" height="50" relative="1" as="geometry">
            <mxPoint x="-70" y="470" as="sourcePoint" />
            <mxPoint x="-20" y="420" as="targetPoint" />
            <Array as="points">
              <mxPoint x="-420" y="440" />
              <mxPoint x="-420" y="770" />
            </Array>
          </mxGeometry>
        </mxCell>
        <mxCell id="cwIM0nOu93WwqDmSKbHJ-27" value="Sistema" style="shape=umlActor;verticalLabelPosition=bottom;verticalAlign=top;html=1;outlineConnect=0;" vertex="1" parent="1">
          <mxGeometry x="310" y="660" width="30" height="60" as="geometry" />
        </mxCell>
        <mxCell id="cwIM0nOu93WwqDmSKbHJ-36" value="" style="endArrow=none;html=1;rounded=0;entryX=0.5;entryY=0.5;entryDx=0;entryDy=0;entryPerimeter=0;exitX=1;exitY=0.5;exitDx=0;exitDy=0;" edge="1" parent="1" source="cwIM0nOu93WwqDmSKbHJ-30" target="cwIM0nOu93WwqDmSKbHJ-27">
          <mxGeometry width="50" height="50" relative="1" as="geometry">
            <mxPoint x="280" y="940" as="sourcePoint" />
            <mxPoint x="330" y="890" as="targetPoint" />
          </mxGeometry>
        </mxCell>
        <mxCell id="cwIM0nOu93WwqDmSKbHJ-49" value="Api de pagamento" style="shape=umlActor;verticalLabelPosition=bottom;verticalAlign=top;html=1;outlineConnect=0;" vertex="1" parent="1">
          <mxGeometry x="300" y="410" width="30" height="60" as="geometry" />
        </mxCell>
        <mxCell id="cwIM0nOu93WwqDmSKbHJ-57" value="" style="endArrow=none;html=1;rounded=0;entryX=0.5;entryY=0.5;entryDx=0;entryDy=0;entryPerimeter=0;exitX=1;exitY=0.5;exitDx=0;exitDy=0;" edge="1" parent="1" source="cwIM0nOu93WwqDmSKbHJ-45" target="cwIM0nOu93WwqDmSKbHJ-49">
          <mxGeometry width="50" height="50" relative="1" as="geometry">
            <mxPoint x="180" y="470" as="sourcePoint" />
            <mxPoint x="230" y="420" as="targetPoint" />
            <Array as="points">
              <mxPoint x="200" y="390" />
              <mxPoint x="200" y="440" />
            </Array>
          </mxGeometry>
        </mxCell>
        <mxCell id="cwIM0nOu93WwqDmSKbHJ-58" value="" style="endArrow=none;html=1;rounded=0;exitX=1;exitY=0.5;exitDx=0;exitDy=0;entryX=0.5;entryY=0.5;entryDx=0;entryDy=0;entryPerimeter=0;" edge="1" parent="1" source="cwIM0nOu93WwqDmSKbHJ-46" target="cwIM0nOu93WwqDmSKbHJ-49">
          <mxGeometry width="50" height="50" relative="1" as="geometry">
            <mxPoint x="180" y="470" as="sourcePoint" />
            <mxPoint x="230" y="420" as="targetPoint" />
            <Array as="points">
              <mxPoint x="200" y="500" />
              <mxPoint x="200" y="440" />
            </Array>
          </mxGeometry>
        </mxCell>
      </root>
    </mxGraphModel>
  </diagram>
</mxfile>
